<?xml version="1.0" standalone="no"?>
<!DOCTYPE svg PUBLIC "-//W3C//DTD SVG 20010904//EN"
 "http://www.w3.org/TR/2001/REC-SVG-20010904/DTD/svg10.dtd">
<svg version="1.0" xmlns="http://www.w3.org/2000/svg"
 width="340.000000pt" height="340.000000pt" viewBox="0 0 340.000000 340.000000"
 preserveAspectRatio="xMidYMid meet">
<metadata>
Created by potrace 1.14, written by Peter Selinger 2001-2017
</metadata>
<g transform="translate(0.000000,340.000000) scale(0.100000,-0.100000)"
fill="#000000" stroke="none">
<path d="M0 3370 c0 -27 3 -30 30 -30 20 0 30 5 30 15 0 10 10 15 30 15 20 0
30 5 30 15 0 12 -13 15 -60 15 l-60 0 0 -30z"/>
<path d="M140 3385 c0 -10 10 -15 30 -15 20 0 30 -5 30 -15 0 -10 10 -15 30
-15 17 0 30 -4 30 -10 0 -5 11 -10 25 -10 16 0 25 -6 25 -15 0 -8 7 -15 15
-15 10 0 15 -10 15 -30 0 -20 5 -30 15 -30 10 0 15 -10 15 -30 0 -20 5 -30 15
-30 9 0 15 -9 15 -25 0 -16 6 -25 15 -25 8 0 15 -7 15 -15 0 -8 -7 -15 -15
-15 -10 0 -15 -10 -15 -30 0 -20 -5 -30 -15 -30 -9 0 -15 -9 -15 -25 0 -16 -6
-25 -15 -25 -10 0 -15 -10 -15 -30 0 -20 -5 -30 -15 -30 -9 0 -15 -9 -15 -25
0 -16 -6 -25 -15 -25 -8 0 -15 -7 -15 -15 0 -9 -9 -15 -25 -15 -16 0 -25 -6
-25 -15 0 -10 -10 -15 -30 -15 -20 0 -30 -5 -30 -15 0 -9 -9 -15 -25 -15 -16
0 -25 -6 -25 -15 0 -10 -10 -15 -30 -15 -20 0 -30 -5 -30 -15 0 -8 -7 -15 -15
-15 -8 0 -15 7 -15 15 0 8 -7 15 -15 15 -12 0 -15 -19 -15 -110 0 -91 3 -110
15 -110 8 0 15 -7 15 -15 0 -8 7 -15 15 -15 8 0 15 7 15 15 0 10 10 15 30 15
20 0 30 5 30 15 0 9 9 15 25 15 14 0 25 5 25 10 0 6 14 10 30 10 20 0 30 5 30
15 0 9 9 15 25 15 16 0 25 6 25 15 0 10 10 15 30 15 20 0 30 5 30 15 0 10 10
15 30 15 20 0 30 5 30 15 0 9 9 15 25 15 20 0 25 5 25 25 0 16 6 25 15 25 10
0 15 10 15 30 0 20 5 30 15 30 10 0 15 10 15 30 0 20 5 30 15 30 9 0 15 9 15
25 0 16 6 25 15 25 10 0 15 10 15 30 0 17 5 30 10 30 6 0 10 7 10 15 0 10 10
15 30 15 27 0 30 -3 30 -30 0 -20 5 -30 15 -30 8 0 15 -7 15 -15 0 -9 9 -15
25 -15 16 0 25 -6 25 -15 0 -11 12 -15 45 -15 33 0 45 4 45 15 0 10 10 15 30
15 20 0 30 5 30 15 0 9 9 15 25 15 16 0 25 6 25 15 0 8 7 15 15 15 9 0 15 9
15 25 0 16 6 25 15 25 10 0 15 10 15 30 0 20 5 30 15 30 11 0 15 11 15 40 0
29 -4 40 -15 40 -10 0 -15 10 -15 30 0 20 -5 30 -15 30 -10 0 -15 10 -15 30 0
20 -5 30 -15 30 -9 0 -15 9 -15 25 0 16 -6 25 -15 25 -10 0 -15 10 -15 30 l0
30 -140 0 -140 0 0 -30 c0 -20 5 -30 15 -30 8 0 15 -4 15 -10 0 -5 7 -10 15
-10 8 0 15 -7 15 -15 0 -8 7 -15 15 -15 8 0 15 -7 15 -15 0 -8 5 -15 10 -15 6
0 10 -7 10 -15 0 -8 7 -15 15 -15 10 0 15 -10 15 -30 0 -20 5 -30 15 -30 11 0
15 -11 15 -40 0 -38 -2 -40 -30 -40 -20 0 -30 5 -30 15 0 12 -13 15 -55 15
-52 0 -55 1 -55 25 0 16 -6 25 -15 25 -10 0 -15 10 -15 30 0 17 -4 30 -10 30
-5 0 -10 14 -10 30 0 20 -5 30 -15 30 -9 0 -15 9 -15 25 0 16 -6 25 -15 25
-10 0 -15 10 -15 30 l0 30 -185 0 c-158 0 -185 -2 -185 -15z"/>
<path d="M1020 3370 c0 -16 5 -30 10 -30 6 0 10 -11 10 -25 0 -16 6 -25 15
-25 10 0 15 -10 15 -30 0 -20 5 -30 15 -30 10 0 15 -10 15 -30 0 -20 5 -30 15
-30 11 0 15 -11 15 -40 0 -29 -4 -40 -15 -40 -10 0 -15 -10 -15 -30 0 -20 -5
-30 -15 -30 -9 0 -15 -9 -15 -25 0 -16 -6 -25 -15 -25 -10 0 -15 -10 -15 -30
0 -16 -4 -30 -10 -30 -5 0 -10 -7 -10 -15 0 -8 -7 -15 -15 -15 -8 0 -15 -4
-15 -10 0 -5 -13 -10 -30 -10 -20 0 -30 -5 -30 -15 0 -9 -9 -15 -25 -15 -16 0
-25 -6 -25 -15 0 -10 -10 -15 -30 -15 -20 0 -30 -5 -30 -15 0 -12 -19 -15
-115 -15 -96 0 -115 -3 -115 -15 0 -8 -4 -15 -10 -15 -5 0 -10 -11 -10 -25 0
-16 -6 -25 -15 -25 -10 0 -15 -10 -15 -30 0 -20 -5 -30 -15 -30 -8 0 -15 -7
-15 -15 0 -10 -10 -15 -30 -15 -20 0 -30 -5 -30 -15 0 -9 -9 -15 -25 -15 -14
0 -25 -4 -25 -10 0 -5 -13 -10 -30 -10 -20 0 -30 -5 -30 -15 0 -10 -10 -15
-30 -15 -20 0 -30 -5 -30 -15 0 -9 -9 -15 -25 -15 -16 0 -25 -6 -25 -15 0 -10
-10 -15 -30 -15 -20 0 -30 -5 -30 -15 0 -9 -9 -15 -25 -15 -14 0 -25 -4 -25
-10 0 -5 -13 -10 -30 -10 -20 0 -30 -5 -30 -15 0 -8 -7 -15 -15 -15 -8 0 -15
7 -15 15 0 8 -7 15 -15 15 -12 0 -15 -19 -15 -115 0 -96 3 -115 15 -115 8 0
15 -7 15 -15 0 -8 7 -15 15 -15 8 0 15 7 15 15 0 10 10 15 30 15 20 0 30 5 30
15 0 9 9 15 25 15 16 0 25 6 25 15 0 10 10 15 30 15 17 0 30 5 30 10 0 6 11
10 25 10 16 0 25 6 25 15 0 10 10 15 30 15 20 0 30 5 30 15 0 10 10 15 30 15
20 0 30 5 30 15 0 9 9 15 25 15 16 0 25 6 25 15 0 10 10 15 30 15 20 0 30 5
30 15 0 10 10 15 30 15 17 0 30 5 30 10 0 6 11 10 25 10 16 0 25 6 25 15 0 10
10 15 30 15 20 0 30 5 30 15 0 9 9 15 25 15 16 0 25 6 25 15 0 10 10 15 30 15
20 0 30 5 30 15 0 10 10 15 30 15 17 0 30 5 30 10 0 6 7 10 15 10 8 0 15 7 15
15 0 9 9 15 25 15 16 0 25 6 25 15 0 10 10 15 30 15 20 0 30 5 30 15 0 9 9 15
25 15 16 0 25 6 25 15 0 10 10 15 30 15 17 0 30 5 30 10 0 6 14 10 30 10 20 0
30 5 30 15 0 8 5 15 10 15 6 0 10 14 10 30 0 20 5 30 15 30 10 0 15 10 15 30
0 20 5 30 15 30 8 0 15 5 15 10 0 6 25 10 55 10 30 0 55 -4 55 -10 0 -5 14
-10 30 -10 20 0 30 -5 30 -15 0 -8 7 -15 15 -15 8 0 15 7 15 15 0 9 9 15 25
15 14 0 25 5 25 10 0 6 14 10 30 10 27 0 30 3 30 30 0 20 5 30 15 30 10 0 15
10 15 30 0 20 5 30 15 30 8 0 15 5 15 10 0 6 -7 10 -15 10 -10 0 -15 10 -15
30 0 27 -3 30 -30 30 -20 0 -30 5 -30 15 0 8 -7 15 -15 15 -8 0 -15 -7 -15
-15 0 -8 -4 -15 -10 -15 -5 0 -10 -7 -10 -15 0 -10 -10 -15 -30 -15 -20 0 -30
5 -30 15 0 8 -7 15 -15 15 -8 0 -15 7 -15 15 0 8 7 15 15 15 9 0 15 9 15 25 0
16 6 25 15 25 8 0 15 7 15 15 0 9 9 15 25 15 16 0 25 6 25 15 0 8 7 15 15 15
8 0 15 -7 15 -15 0 -10 10 -15 30 -15 20 0 30 -5 30 -15 0 -9 9 -15 25 -15 14
0 25 -4 25 -10 0 -5 7 -10 15 -10 10 0 15 -10 15 -30 0 -20 5 -30 15 -30 10 0
15 -10 15 -30 0 -20 5 -30 15 -30 8 0 15 -4 15 -10 0 -5 -7 -10 -15 -10 -10 0
-15 -10 -15 -30 0 -20 -5 -30 -15 -30 -11 0 -15 -11 -15 -40 0 -29 4 -40 15
-40 8 0 15 5 15 10 0 6 20 10 45 10 25 0 45 -4 45 -10 0 -5 11 -10 25 -10 16
0 25 -6 25 -15 0 -10 10 -15 30 -15 20 0 30 -5 30 -15 0 -12 13 -15 55 -15 42
0 55 3 55 15 0 10 10 15 30 15 20 0 30 -5 30 -15 0 -8 5 -15 10 -15 6 0 10 -7
10 -15 0 -12 19 -15 115 -15 96 0 115 -3 115 -15 0 -13 38 -15 280 -15 l280 0
0 -125 c0 -104 -2 -125 -15 -125 -10 0 -15 -10 -15 -30 0 -16 -4 -30 -10 -30
-5 0 -10 -11 -10 -25 0 -16 -6 -25 -15 -25 -10 0 -15 -10 -15 -30 0 -20 -5
-30 -15 -30 -10 0 -15 -10 -15 -30 0 -20 -5 -30 -15 -30 -11 0 -15 -11 -15
-40 0 -29 4 -40 15 -40 10 0 15 -10 15 -30 0 -20 5 -30 15 -30 9 0 15 -9 15
-25 0 -16 6 -25 15 -25 10 0 15 -10 15 -30 0 -16 5 -30 10 -30 6 0 10 -11 10
-25 0 -16 6 -25 15 -25 10 0 15 -10 15 -30 0 -20 5 -30 15 -30 10 0 15 -10 15
-30 0 -20 5 -30 15 -30 9 0 15 -9 15 -25 0 -16 6 -25 15 -25 10 0 15 -10 15
-30 0 -16 5 -30 10 -30 6 0 10 -13 10 -30 0 -20 5 -30 15 -30 9 0 15 -9 15
-25 0 -20 -5 -25 -25 -25 -16 0 -25 6 -25 15 0 11 -12 15 -45 15 -33 0 -45 -4
-45 -15 0 -11 -11 -15 -40 -15 -29 0 -40 4 -40 15 0 8 7 15 15 15 11 0 15 11
15 40 0 29 -4 40 -15 40 -10 0 -15 10 -15 30 0 20 -5 30 -15 30 -9 0 -15 9
-15 25 0 16 -6 25 -15 25 -10 0 -15 10 -15 30 0 20 -5 30 -15 30 -10 0 -15 10
-15 30 0 17 -4 30 -10 30 -5 0 -10 11 -10 25 0 16 -6 25 -15 25 -10 0 -15 10
-15 30 0 20 -5 30 -15 30 -9 0 -15 9 -15 25 0 16 -6 25 -15 25 -10 0 -15 10
-15 30 0 20 -5 30 -15 30 -10 0 -15 10 -15 30 0 20 -5 30 -15 30 -9 0 -15 9
-15 25 0 14 -4 25 -10 25 -5 0 -10 14 -10 30 0 20 -5 30 -15 30 -10 0 -15 10
-15 30 0 20 -5 30 -15 30 -8 0 -15 5 -15 10 0 6 -13 10 -30 10 -20 0 -30 5
-30 15 0 9 -9 15 -25 15 -16 0 -25 6 -25 15 0 10 -10 15 -30 15 -20 0 -30 5
-30 15 0 9 -9 15 -25 15 -16 0 -25 6 -25 15 0 10 -10 15 -30 15 -16 0 -30 5
-30 10 0 6 -13 10 -30 10 -20 0 -30 5 -30 15 0 9 -9 15 -25 15 -16 0 -25 6
-25 15 0 10 -10 15 -30 15 -20 0 -30 5 -30 15 0 10 -10 15 -30 15 -20 0 -30 5
-30 15 0 9 -9 15 -25 15 -14 0 -25 5 -25 10 0 6 -13 10 -30 10 -20 0 -30 5
-30 15 0 9 -9 15 -25 15 -16 0 -25 6 -25 15 0 11 -12 15 -45 15 -33 0 -45 -4
-45 -15 0 -10 -10 -15 -30 -15 -20 0 -30 -5 -30 -15 0 -9 -9 -15 -25 -15 -14
0 -25 -4 -25 -10 0 -5 -13 -10 -30 -10 -20 0 -30 -5 -30 -15 0 -9 -9 -15 -25
-15 -16 0 -25 -6 -25 -15 0 -10 -10 -15 -30 -15 -20 0 -30 -5 -30 -15 0 -10
-10 -15 -30 -15 -20 0 -30 -5 -30 -15 0 -9 -9 -15 -25 -15 -14 0 -25 -4 -25
-10 0 -5 -13 -10 -30 -10 -20 0 -30 -5 -30 -15 0 -10 -10 -15 -30 -15 -20 0
-30 -5 -30 -15 0 -9 -9 -15 -25 -15 -16 0 -25 -6 -25 -15 0 -10 -10 -15 -30
-15 -20 0 -30 -5 -30 -15 0 -9 -9 -15 -25 -15 -14 0 -25 -4 -25 -10 0 -5 -13
-10 -30 -10 -20 0 -30 -5 -30 -15 0 -8 -7 -15 -15 -15 -10 0 -15 -10 -15 -30
0 -20 -5 -30 -15 -30 -10 0 -15 -10 -15 -30 0 -16 -4 -30 -10 -30 -5 0 -10
-11 -10 -25 0 -16 -6 -25 -15 -25 -10 0 -15 -10 -15 -30 0 -20 -5 -30 -15 -30
-9 0 -15 -9 -15 -25 0 -16 -6 -25 -15 -25 -10 0 -15 -10 -15 -30 0 -20 -5 -30
-15 -30 -10 0 -15 -10 -15 -30 0 -20 -5 -30 -15 -30 -9 0 -15 -9 -15 -25 0
-14 -4 -25 -10 -25 -5 0 -10 -13 -10 -30 0 -20 -5 -30 -15 -30 -10 0 -15 -10
-15 -30 0 -20 -5 -30 -15 -30 -9 0 -15 -9 -15 -25 0 -16 -6 -25 -15 -25 -10 0
-15 -10 -15 -30 0 -20 -5 -30 -15 -30 -9 0 -15 -9 -15 -25 0 -14 -4 -25 -10
-25 -5 0 -10 -20 -10 -45 0 -25 5 -45 10 -45 6 0 10 -11 10 -25 0 -16 6 -25
15 -25 10 0 15 -10 15 -30 0 -20 5 -30 15 -30 10 0 15 -10 15 -30 0 -20 5 -30
15 -30 9 0 15 -9 15 -25 0 -16 6 -25 15 -25 10 0 15 -10 15 -30 0 -16 5 -30
10 -30 6 0 10 -13 10 -30 0 -20 5 -30 15 -30 9 0 15 -9 15 -25 0 -16 6 -25 15
-25 10 0 15 -10 15 -30 0 -20 5 -30 15 -30 9 0 15 -9 15 -25 0 -16 6 -25 15
-25 10 0 15 -10 15 -30 0 -20 5 -30 15 -30 10 0 15 -10 15 -30 0 -16 5 -30 10
-30 6 0 10 -11 10 -25 0 -16 6 -25 15 -25 10 0 15 -10 15 -30 0 -20 5 -30 15
-30 10 0 15 -10 15 -30 0 -20 5 -30 15 -30 8 0 15 -4 15 -10 0 -5 11 -10 25
-10 16 0 25 -6 25 -15 0 -10 10 -15 30 -15 20 0 30 -5 30 -15 0 -10 10 -15 30
-15 20 0 30 -5 30 -15 0 -9 9 -15 25 -15 16 0 25 -6 25 -15 0 -10 10 -15 30
-15 17 0 30 -4 30 -10 0 -5 14 -10 30 -10 20 0 30 -5 30 -15 0 -9 9 -15 25
-15 16 0 25 -6 25 -15 0 -10 10 -15 30 -15 20 0 30 -5 30 -15 0 -9 9 -15 25
-15 16 0 25 -6 25 -15 0 -10 10 -15 30 -15 20 0 30 -5 30 -15 0 -10 10 -15 30
-15 17 0 30 -4 30 -10 0 -5 11 -10 25 -10 16 0 25 -6 25 -15 0 -10 10 -15 30
-15 20 0 30 -5 30 -15 0 -10 10 -15 30 -15 20 0 30 -5 30 -15 0 -13 28 -15
195 -15 167 0 195 -2 195 -15 0 -8 -7 -15 -15 -15 -9 0 -15 -9 -15 -25 0 -16
-6 -25 -15 -25 -8 0 -15 -7 -15 -15 0 -8 7 -15 15 -15 10 0 15 -10 15 -30 0
-20 5 -30 15 -30 9 0 15 -9 15 -25 0 -16 6 -25 15 -25 10 0 15 -10 15 -30 0
-20 5 -30 15 -30 9 0 15 -10 15 -26 0 -48 18 -54 154 -54 77 0 126 4 126 10 0
6 -13 10 -30 10 -27 0 -30 3 -30 30 0 20 -5 30 -15 30 -10 0 -15 10 -15 30 0
20 -5 30 -15 30 -9 0 -15 9 -15 25 0 14 -4 25 -10 25 -5 0 -10 14 -10 30 0 20
-5 30 -15 30 -8 0 -15 7 -15 15 0 8 7 15 15 15 9 0 15 9 15 25 0 14 5 25 10
25 6 0 10 14 10 30 0 20 5 30 15 30 10 0 15 10 15 30 0 27 3 30 30 30 17 0 30
5 30 10 0 6 11 10 25 10 16 0 25 6 25 15 0 10 10 15 30 15 20 0 30 5 30 15 0
8 7 15 15 15 8 0 15 -7 15 -15 0 -10 10 -15 30 -15 20 0 30 -5 30 -15 0 -9 9
-15 25 -15 20 0 25 -5 25 -25 0 -16 6 -25 15 -25 10 0 15 -10 15 -30 0 -20 5
-30 15 -30 8 0 15 -7 15 -15 0 -8 -7 -15 -15 -15 -9 0 -15 -9 -15 -25 0 -21
-5 -25 -30 -25 -20 0 -30 -5 -30 -15 0 -8 -4 -15 -10 -15 -5 0 -10 7 -10 15 0
8 -7 15 -15 15 -9 0 -15 9 -15 25 0 16 6 25 15 25 8 0 15 7 15 15 0 8 -7 15
-15 15 -8 0 -15 7 -15 15 0 8 -7 15 -15 15 -8 0 -15 7 -15 15 0 8 -7 15 -15
15 -8 0 -15 -7 -15 -15 0 -10 -10 -15 -30 -15 -20 0 -30 -5 -30 -15 0 -8 -4
-15 -10 -15 -5 0 -10 -7 -10 -15 0 -8 -7 -15 -15 -15 -9 0 -15 -9 -15 -25 0
-16 -6 -25 -15 -25 -8 0 -15 -7 -15 -15 0 -8 7 -15 15 -15 10 0 15 -10 15 -30
0 -20 5 -30 15 -30 9 0 15 -9 15 -25 0 -14 5 -25 10 -25 6 0 10 -7 10 -15 0
-8 7 -15 15 -15 8 0 15 -7 15 -15 0 -10 10 -15 30 -15 20 0 30 -5 30 -15 0
-10 10 -15 30 -15 20 0 30 -5 30 -15 0 -8 5 -15 10 -15 6 0 10 7 10 15 0 10
10 15 30 15 20 0 30 5 30 15 0 10 10 15 30 15 20 0 30 5 30 15 0 9 9 15 25 15
16 0 25 6 25 15 0 8 7 15 15 15 8 0 15 7 15 15 0 8 7 15 15 15 9 0 15 9 15 25
0 16 6 25 15 25 10 0 15 10 15 30 0 17 5 30 10 30 6 0 10 11 10 25 0 16 6 25
15 25 8 0 15 7 15 15 0 8 -7 15 -15 15 -10 0 -15 10 -15 30 0 17 -4 30 -10 30
-5 0 -10 11 -10 25 0 16 -6 25 -15 25 -10 0 -15 10 -15 30 0 20 -5 30 -15 30
-10 0 -15 10 -15 30 0 20 -5 30 -15 30 -8 0 -15 7 -15 15 0 8 -7 15 -15 15 -8
0 -15 5 -15 10 0 6 -11 10 -25 10 -16 0 -25 6 -25 15 0 10 -10 15 -30 15 -20
0 -30 5 -30 15 0 9 -9 15 -25 15 -16 0 -25 6 -25 15 0 10 -10 15 -30 15 -20 0
-30 5 -30 15 0 12 -18 15 -100 15 -82 0 -100 -3 -100 -15 0 -8 -7 -15 -15 -15
-8 0 -15 -7 -15 -15 0 -9 -9 -15 -25 -15 -16 0 -25 6 -25 15 0 8 -7 15 -15 15
-8 0 -15 7 -15 15 0 8 7 15 15 15 9 0 15 9 15 25 0 23 -4 25 -45 25 -33 0 -45
-4 -45 -15 0 -9 -9 -15 -25 -15 -14 0 -25 -4 -25 -10 0 -5 -13 -10 -30 -10
-20 0 -30 -5 -30 -15 0 -10 -10 -15 -30 -15 -20 0 -30 -5 -30 -15 0 -9 -9 -15
-25 -15 -16 0 -25 -6 -25 -15 0 -10 -10 -15 -30 -15 -20 0 -30 -5 -30 -15 0
-9 -9 -15 -25 -15 -14 0 -25 -4 -25 -10 0 -5 -13 -10 -30 -10 -20 0 -30 -5
-30 -15 0 -11 -11 -15 -40 -15 -29 0 -40 4 -40 15 0 10 -10 15 -30 15 -16 0
-30 5 -30 10 0 6 -13 10 -30 10 -20 0 -30 5 -30 15 0 9 -9 15 -25 15 -16 0
-25 6 -25 15 0 10 -10 15 -30 15 -20 0 -30 5 -30 15 0 10 -10 15 -30 15 -20 0
-30 5 -30 15 0 9 -9 15 -25 15 -14 0 -25 5 -25 10 0 6 -13 10 -30 10 -20 0
-30 5 -30 15 0 9 -9 15 -25 15 -16 0 -25 6 -25 15 0 10 -10 15 -30 15 -20 0
-30 5 -30 15 0 10 -10 15 -30 15 -20 0 -30 5 -30 15 0 9 -9 15 -25 15 -14 0
-25 5 -25 10 0 6 -7 10 -15 10 -8 0 -15 7 -15 15 0 8 -7 15 -15 15 -10 0 -15
10 -15 30 0 20 -5 30 -15 30 -10 0 -15 10 -15 30 0 20 -5 30 -15 30 -9 0 -15
9 -15 25 0 14 -4 25 -10 25 -5 0 -10 14 -10 30 0 20 -5 30 -15 30 -9 0 -15 9
-15 25 0 16 -6 25 -15 25 -10 0 -15 10 -15 30 0 20 -5 30 -15 30 -10 0 -15 10
-15 30 0 20 -5 30 -15 30 -9 0 -15 9 -15 25 0 14 -4 25 -10 25 -5 0 -10 14
-10 30 0 20 -5 30 -15 30 -10 0 -15 10 -15 30 0 20 -5 30 -15 30 -9 0 -15 9
-15 25 0 16 -6 25 -15 25 -11 0 -15 12 -15 45 0 33 4 45 15 45 9 0 15 9 15 25
0 16 6 25 15 25 10 0 15 10 15 30 0 20 5 30 15 30 9 0 15 9 15 25 0 14 5 25
10 25 6 0 10 14 10 30 0 20 5 30 15 30 10 0 15 10 15 30 0 20 5 30 15 30 9 0
15 9 15 25 0 16 6 25 15 25 10 0 15 10 15 30 0 20 5 30 15 30 10 0 15 10 15
30 0 17 5 30 10 30 6 0 10 11 10 25 0 16 6 25 15 25 10 0 15 10 15 30 0 20 5
30 15 30 8 0 15 7 15 15 0 8 7 15 15 15 8 0 15 5 15 10 0 6 11 10 25 10 16 0
25 6 25 15 0 10 10 15 30 15 20 0 30 5 30 15 0 10 10 15 30 15 20 0 30 5 30
15 0 9 9 15 25 15 16 0 25 6 25 15 0 10 10 15 30 15 20 0 30 5 30 15 0 10 10
15 30 15 17 0 30 5 30 10 0 6 11 10 25 10 16 0 25 6 25 15 0 10 10 15 30 15
20 0 30 5 30 15 0 9 9 15 25 15 16 0 25 6 25 15 0 10 10 15 30 15 20 0 30 5
30 15 0 11 12 15 45 15 33 0 45 -4 45 -15 0 -9 9 -15 25 -15 16 0 25 -6 25
-15 0 -10 10 -15 30 -15 20 0 30 -5 30 -15 0 -9 9 -15 25 -15 16 0 25 -6 25
-15 0 -10 10 -15 30 -15 17 0 30 -4 30 -10 0 -5 14 -10 30 -10 20 0 30 -5 30
-15 0 -9 9 -15 25 -15 16 0 25 -6 25 -15 0 -10 10 -15 30 -15 20 0 30 -5 30
-15 0 -10 10 -15 30 -15 20 0 30 -5 30 -15 0 -9 9 -15 25 -15 16 0 25 -6 25
-15 0 -8 7 -15 15 -15 8 0 15 -4 15 -10 0 -5 7 -10 15 -10 10 0 15 -10 15 -30
0 -20 5 -30 15 -30 10 0 15 -10 15 -30 0 -16 5 -30 10 -30 6 0 10 -11 10 -25
0 -16 6 -25 15 -25 10 0 15 -10 15 -30 0 -20 5 -30 15 -30 9 0 15 -9 15 -25 0
-16 6 -25 15 -25 10 0 15 -10 15 -30 0 -20 5 -30 15 -30 10 0 15 -10 15 -30 0
-16 5 -30 10 -30 6 0 10 -11 10 -25 0 -16 6 -25 15 -25 10 0 15 -10 15 -30 0
-20 5 -30 15 -30 11 0 15 -11 15 -40 0 -29 -4 -40 -15 -40 -10 0 -15 -10 -15
-30 0 -20 -5 -30 -15 -30 -10 0 -15 -10 -15 -30 0 -16 -4 -30 -10 -30 -5 0
-10 -11 -10 -25 0 -16 -6 -25 -15 -25 -10 0 -15 -10 -15 -30 0 -20 -5 -30 -15
-30 -10 0 -15 -10 -15 -30 0 -20 -5 -30 -15 -30 -9 0 -15 -9 -15 -25 0 -16 -6
-25 -15 -25 -10 0 -15 -10 -15 -30 0 -16 -4 -30 -10 -30 -5 0 -10 -11 -10 -25
0 -16 -6 -25 -15 -25 -8 0 -15 -7 -15 -15 0 -8 -7 -15 -15 -15 -8 0 -15 -7
-15 -15 0 -10 -10 -15 -30 -15 -20 0 -30 -5 -30 -15 0 -9 -9 -15 -25 -15 -16
0 -25 -6 -25 -15 0 -10 -10 -15 -30 -15 -16 0 -30 -4 -30 -10 0 -5 -13 -10
-30 -10 -20 0 -30 -5 -30 -15 0 -9 -9 -15 -25 -15 -16 0 -25 -6 -25 -15 0 -10
-10 -15 -30 -15 -20 0 -30 -5 -30 -15 0 -9 -9 -15 -25 -15 -16 0 -25 -6 -25
-15 0 -10 -10 -15 -30 -15 -20 0 -30 -5 -30 -15 0 -11 -11 -15 -40 -15 -29 0
-40 4 -40 15 0 10 -10 15 -30 15 -20 0 -30 5 -30 15 0 10 -10 15 -30 15 -20 0
-30 5 -30 15 0 9 -9 15 -25 15 -16 0 -25 6 -25 15 0 10 -10 15 -30 15 -20 0
-30 5 -30 15 0 10 -10 15 -30 15 -16 0 -30 5 -30 10 0 6 -11 10 -25 10 -16 0
-25 6 -25 15 0 10 -10 15 -30 15 -20 0 -30 5 -30 15 0 8 -7 15 -15 15 -8 0
-15 7 -15 15 0 8 -4 15 -10 15 -5 0 -10 11 -10 25 0 16 -6 25 -15 25 -10 0
-15 10 -15 30 0 20 -5 30 -15 30 -10 0 -15 10 -15 30 0 20 -5 30 -15 30 -9 0
-15 9 -15 25 0 16 -6 25 -15 25 -10 0 -15 10 -15 30 0 20 -5 30 -15 30 -10 0
-15 10 -15 30 0 17 -4 30 -10 30 -5 0 -10 11 -10 25 0 16 -6 25 -15 25 -11 0
-15 12 -15 45 0 33 4 45 15 45 9 0 15 9 15 25 0 14 5 25 10 25 6 0 10 14 10
30 0 20 5 30 15 30 9 0 15 9 15 25 0 16 6 25 15 25 10 0 15 10 15 30 0 20 5
30 15 30 10 0 15 10 15 30 0 20 5 30 15 30 9 0 15 9 15 25 0 16 6 25 15 25 8
0 15 7 15 15 0 8 5 15 10 15 6 0 10 7 10 15 0 10 10 15 30 15 20 0 30 5 30 15
0 10 10 15 30 15 20 0 30 5 30 15 0 9 9 15 25 15 14 0 25 5 25 10 0 6 14 10
30 10 20 0 30 5 30 15 0 9 9 15 25 15 16 0 25 6 25 15 0 10 10 15 30 15 20 0
30 5 30 15 0 11 12 15 45 15 33 0 45 -4 45 -15 0 -9 9 -15 25 -15 16 0 25 -6
25 -15 0 -10 10 -15 30 -15 20 0 30 -5 30 -15 0 -9 9 -15 25 -15 14 0 25 -4
25 -10 0 -5 14 -10 30 -10 20 0 30 -5 30 -15 0 -10 10 -15 30 -15 20 0 30 -5
30 -15 0 -8 5 -15 10 -15 6 0 10 -7 10 -15 0 -8 7 -15 15 -15 9 0 15 -9 15
-25 0 -16 6 -25 15 -25 10 0 15 -10 15 -30 0 -20 5 -30 15 -30 10 0 15 -10 15
-30 0 -20 5 -30 15 -30 9 0 15 -9 15 -25 0 -16 6 -25 15 -25 10 0 15 -10 15
-30 0 -16 5 -30 10 -30 6 0 10 -18 10 -40 0 -22 -4 -40 -10 -40 -5 0 -10 -13
-10 -30 0 -20 -5 -30 -15 -30 -10 0 -15 -10 -15 -30 0 -20 -5 -30 -15 -30 -9
0 -15 -9 -15 -25 0 -16 -6 -25 -15 -25 -10 0 -15 -10 -15 -30 0 -20 -5 -30
-15 -30 -8 0 -15 -7 -15 -15 0 -8 -7 -15 -15 -15 -8 0 -15 -7 -15 -15 0 -9 -9
-15 -25 -15 -14 0 -25 -4 -25 -10 0 -5 -13 -10 -30 -10 -20 0 -30 -5 -30 -15
0 -9 -9 -15 -25 -15 -16 0 -25 -6 -25 -15 0 -10 -10 -15 -30 -15 -20 0 -30 -5
-30 -15 0 -11 -11 -15 -40 -15 -29 0 -40 4 -40 15 0 10 -10 15 -30 15 -20 0
-30 5 -30 15 0 10 -10 15 -30 15 -20 0 -30 5 -30 15 0 9 -9 15 -25 15 -14 0
-25 5 -25 10 0 6 -7 10 -15 10 -8 0 -15 7 -15 15 0 8 -7 15 -15 15 -10 0 -15
10 -15 30 0 20 -5 30 -15 30 -10 0 -15 10 -15 30 0 20 -5 30 -15 30 -9 0 -15
9 -15 25 0 14 -4 25 -10 25 -5 0 -10 20 -10 45 0 25 5 45 10 45 6 0 10 11 10
25 0 16 6 25 15 25 10 0 15 10 15 30 0 20 5 30 15 30 8 0 15 7 15 15 0 8 7 15
15 15 8 0 15 5 15 10 0 6 11 10 25 10 16 0 25 6 25 15 0 10 10 15 30 15 20 0
30 5 30 15 0 11 12 15 45 15 33 0 45 -4 45 -15 0 -9 9 -15 25 -15 16 0 25 -6
25 -15 0 -8 7 -15 15 -15 8 0 15 -4 15 -10 0 -5 7 -10 15 -10 10 0 15 -10 15
-30 0 -20 5 -30 15 -30 11 0 15 -11 15 -40 0 -29 -4 -40 -15 -40 -8 0 -15 -7
-15 -15 0 -8 -7 -15 -15 -15 -8 0 -15 -7 -15 -15 0 -11 -11 -15 -40 -15 -38 0
-40 2 -40 30 0 17 5 30 10 30 6 0 10 18 10 40 0 22 -4 40 -10 40 -5 0 -10 7
-10 15 0 11 -12 15 -45 15 -33 0 -45 -4 -45 -15 0 -10 -10 -15 -30 -15 -20 0
-30 -5 -30 -15 0 -8 -4 -15 -10 -15 -5 0 -10 -11 -10 -25 0 -16 -6 -25 -15
-25 -11 0 -15 -12 -15 -45 0 -33 4 -45 15 -45 9 0 15 -9 15 -25 0 -14 5 -25
10 -25 6 0 10 -13 10 -30 0 -20 5 -30 15 -30 8 0 15 -7 15 -15 0 -10 10 -15
30 -15 20 0 30 -5 30 -15 0 -10 10 -15 30 -15 20 0 30 -5 30 -15 0 -11 11 -15
40 -15 29 0 40 4 40 15 0 10 10 15 30 15 20 0 30 5 30 15 0 9 9 15 25 15 16 0
25 6 25 15 0 10 10 15 30 15 20 0 30 5 30 15 0 8 7 15 15 15 9 0 15 9 15 25 0
14 5 25 10 25 6 0 10 14 10 30 0 20 5 30 15 30 10 0 15 10 15 30 0 20 5 30 15
30 11 0 15 11 15 40 0 29 -4 40 -15 40 -10 0 -15 10 -15 30 0 20 -5 30 -15 30
-9 0 -15 9 -15 25 0 14 -4 25 -10 25 -5 0 -10 14 -10 30 0 20 -5 30 -15 30
-10 0 -15 10 -15 30 0 20 -5 30 -15 30 -8 0 -15 5 -15 10 0 6 -13 10 -30 10
-20 0 -30 5 -30 15 0 9 -9 15 -25 15 -16 0 -25 6 -25 15 0 10 -10 15 -30 15
-20 0 -30 5 -30 15 0 9 -9 15 -25 15 -16 0 -25 6 -25 15 0 11 -12 15 -45 15
-33 0 -45 -4 -45 -15 0 -10 -10 -15 -30 -15 -20 0 -30 -5 -30 -15 0 -9 -9 -15
-25 -15 -16 0 -25 -6 -25 -15 0 -10 -10 -15 -30 -15 -20 0 -30 -5 -30 -15 0
-9 -9 -15 -25 -15 -14 0 -25 -4 -25 -10 0 -5 -13 -10 -30 -10 -20 0 -30 -5
-30 -15 0 -8 -7 -15 -15 -15 -10 0 -15 -10 -15 -30 0 -20 -5 -30 -15 -30 -10
0 -15 -10 -15 -30 0 -16 -4 -30 -10 -30 -5 0 -10 -11 -10 -25 0 -16 -6 -25
-15 -25 -10 0 -15 -10 -15 -30 0 -20 -5 -30 -15 -30 -9 0 -15 -9 -15 -25 0
-16 -6 -25 -15 -25 -11 0 -15 -12 -15 -45 0 -33 4 -45 15 -45 9 0 15 -9 15
-25 0 -16 6 -25 15 -25 10 0 15 -10 15 -30 0 -20 5 -30 15 -30 10 0 15 -10 15
-30 0 -16 5 -30 10 -30 6 0 10 -11 10 -25 0 -16 6 -25 15 -25 10 0 15 -10 15
-30 0 -20 5 -30 15 -30 10 0 15 -10 15 -30 0 -20 5 -30 15 -30 8 0 15 -4 15
-10 0 -5 11 -10 25 -10 16 0 25 -6 25 -15 0 -10 10 -15 30 -15 20 0 30 -5 30
-15 0 -10 10 -15 30 -15 20 0 30 -5 30 -15 0 -9 9 -15 25 -15 16 0 25 -6 25
-15 0 -10 10 -15 30 -15 17 0 30 -4 30 -10 0 -5 14 -10 30 -10 20 0 30 -5 30
-15 0 -11 11 -15 40 -15 29 0 40 4 40 15 0 10 10 15 30 15 17 0 30 5 30 10 0
6 11 10 25 10 16 0 25 6 25 15 0 10 10 15 30 15 20 0 30 5 30 15 0 9 9 15 25
15 16 0 25 6 25 15 0 10 10 15 30 15 20 0 30 5 30 15 0 10 10 15 30 15 17 0
30 5 30 10 0 6 11 10 25 10 16 0 25 6 25 15 0 8 7 15 15 15 10 0 15 10 15 30
0 20 5 30 15 30 9 0 15 9 15 25 0 16 6 25 15 25 10 0 15 10 15 30 0 20 5 30
15 30 10 0 15 10 15 30 0 17 5 30 10 30 6 0 10 11 10 25 0 16 6 25 15 25 10 0
15 10 15 30 0 20 5 30 15 30 10 0 15 10 15 30 0 20 5 30 15 30 11 0 15 11 15
40 0 29 -4 40 -15 40 -10 0 -15 10 -15 30 0 20 -5 30 -15 30 -9 0 -15 9 -15
25 0 16 -6 25 -15 25 -10 0 -15 10 -15 30 0 17 -4 30 -10 30 -5 0 -10 14 -10
30 0 20 -5 30 -15 30 -9 0 -15 9 -15 25 0 16 -6 25 -15 25 -10 0 -15 10 -15
30 0 20 -5 30 -15 30 -9 0 -15 9 -15 25 0 16 -6 25 -15 25 -10 0 -15 10 -15
30 0 17 -4 30 -10 30 -5 0 -10 7 -10 15 0 10 -10 15 -30 15 -20 0 -30 5 -30
15 0 10 -10 15 -30 15 -16 0 -30 5 -30 10 0 6 -11 10 -25 10 -16 0 -25 6 -25
15 0 10 -10 15 -30 15 -20 0 -30 5 -30 15 0 10 -10 15 -30 15 -20 0 -30 5 -30
15 0 9 -9 15 -25 15 -16 0 -25 6 -25 15 0 10 -10 15 -30 15 -20 0 -30 5 -30
15 0 9 -9 15 -25 15 -14 0 -25 5 -25 10 0 6 -20 10 -45 10 -25 0 -45 -4 -45
-10 0 -5 -13 -10 -30 -10 -20 0 -30 -5 -30 -15 0 -9 -9 -15 -25 -15 -16 0 -25
-6 -25 -15 0 -10 -10 -15 -30 -15 -20 0 -30 -5 -30 -15 0 -9 -9 -15 -25 -15
-16 0 -25 -6 -25 -15 0 -10 -10 -15 -30 -15 -20 0 -30 -5 -30 -15 0 -10 -10
-15 -30 -15 -16 0 -30 -4 -30 -10 0 -5 -11 -10 -25 -10 -16 0 -25 -6 -25 -15
0 -10 -10 -15 -30 -15 -20 0 -30 -5 -30 -15 0 -10 -10 -15 -30 -15 -20 0 -30
-5 -30 -15 0 -8 -4 -15 -10 -15 -5 0 -10 -11 -10 -25 0 -16 -6 -25 -15 -25
-10 0 -15 -10 -15 -30 0 -20 -5 -30 -15 -30 -10 0 -15 -10 -15 -30 0 -20 -5
-30 -15 -30 -9 0 -15 -9 -15 -25 0 -16 -6 -25 -15 -25 -10 0 -15 -10 -15 -30
0 -16 -4 -30 -10 -30 -5 0 -10 -13 -10 -30 0 -20 -5 -30 -15 -30 -9 0 -15 -9
-15 -25 0 -16 -6 -25 -15 -25 -10 0 -15 -10 -15 -30 0 -20 -5 -30 -15 -30 -9
0 -15 -9 -15 -25 0 -16 -6 -25 -15 -25 -11 0 -15 -12 -15 -45 0 -33 4 -45 15
-45 9 0 15 -9 15 -25 0 -16 6 -25 15 -25 10 0 15 -10 15 -30 0 -20 5 -30 15
-30 10 0 15 -10 15 -30 0 -20 5 -30 15 -30 9 0 15 -9 15 -25 0 -14 5 -25 10
-25 6 0 10 -13 10 -30 0 -20 5 -30 15 -30 10 0 15 -10 15 -30 0 -20 5 -30 15
-30 9 0 15 -9 15 -25 0 -16 6 -25 15 -25 10 0 15 -10 15 -30 0 -20 5 -30 15
-30 9 0 15 -9 15 -25 0 -14 5 -25 10 -25 6 0 10 -13 10 -30 0 -20 5 -30 15
-30 8 0 15 -7 15 -15 0 -10 10 -15 30 -15 20 0 30 -5 30 -15 0 -10 10 -15 30
-15 20 0 30 -5 30 -15 0 -9 9 -15 25 -15 14 0 25 -4 25 -10 0 -5 14 -10 30
-10 20 0 30 -5 30 -15 0 -9 9 -15 25 -15 16 0 25 -6 25 -15 0 -10 10 -15 30
-15 20 0 30 -5 30 -15 0 -10 10 -15 30 -15 20 0 30 -5 30 -15 0 -9 9 -15 25
-15 14 0 25 -4 25 -10 0 -5 14 -10 30 -10 20 0 30 -5 30 -15 0 -10 10 -15 30
-15 20 0 30 -5 30 -15 0 -11 11 -15 40 -15 29 0 40 4 40 15 0 10 10 15 30 15
20 0 30 5 30 15 0 9 9 15 25 15 14 0 25 5 25 10 0 6 14 10 30 10 20 0 30 5 30
15 0 9 9 15 25 15 16 0 25 6 25 15 0 10 10 15 30 15 20 0 30 5 30 15 0 10 10
15 30 15 20 0 30 5 30 15 0 9 9 15 25 15 14 0 25 5 25 10 0 6 14 10 30 10 20
0 30 5 30 15 0 10 10 15 30 15 20 0 30 5 30 15 0 9 9 15 25 15 16 0 25 6 25
15 0 10 10 15 30 15 20 0 30 5 30 15 0 8 7 15 15 15 8 0 15 -7 15 -15 0 -12
13 -15 55 -15 l55 0 0 -45 c0 -33 -4 -45 -15 -45 -9 0 -15 -9 -15 -25 0 -16 6
-25 15 -25 8 0 15 -7 15 -15 0 -10 10 -15 30 -15 20 0 30 -5 30 -15 0 -9 9
-15 25 -15 16 0 25 -6 25 -15 0 -10 10 -15 30 -15 17 0 30 -4 30 -10 0 -5 11
-10 25 -10 16 0 25 -6 25 -15 0 -10 10 -15 30 -15 20 0 30 -5 30 -15 0 -10 10
-15 30 -15 27 0 30 -3 30 -30 0 -16 5 -30 10 -30 6 0 10 -11 10 -25 0 -16 6
-25 15 -25 10 0 15 -10 15 -30 0 -20 5 -30 15 -30 10 0 15 -10 15 -30 0 -20 5
-30 15 -30 9 0 15 -9 15 -25 0 -16 6 -25 15 -25 10 0 15 -10 15 -30 0 -20 5
-30 15 -30 8 0 15 -7 15 -15 0 -8 -7 -15 -15 -15 -9 0 -15 -9 -15 -25 0 -16
-6 -25 -15 -25 -10 0 -15 -10 -15 -30 0 -20 -5 -30 -15 -30 -9 0 -15 -9 -15
-25 0 -16 -6 -25 -15 -25 -10 0 -15 -10 -15 -30 0 -20 -5 -30 -15 -30 -10 0
-15 -10 -15 -30 0 -25 -4 -30 -25 -30 -16 0 -25 -6 -25 -15 0 -10 -10 -15 -30
-15 -16 0 -30 -4 -30 -10 0 -6 95 -10 265 -10 l265 0 0 165 c0 103 -4 165 -10
165 -5 0 -10 -11 -10 -25 0 -16 -6 -25 -15 -25 -8 0 -15 -7 -15 -15 0 -8 -7
-15 -15 -15 -8 0 -15 -7 -15 -15 0 -8 -7 -15 -15 -15 -10 0 -15 10 -15 30 0
20 5 30 15 30 9 0 15 9 15 25 0 16 6 25 15 25 8 0 15 7 15 15 0 8 -7 15 -15
15 -10 0 -15 10 -15 30 0 20 -5 30 -15 30 -9 0 -15 9 -15 25 0 14 -4 25 -10
25 -5 0 -10 14 -10 30 0 20 -5 30 -15 30 -10 0 -15 10 -15 30 0 20 -5 30 -15
30 -9 0 -15 9 -15 25 0 16 -6 25 -15 25 -10 0 -15 10 -15 30 0 20 -5 30 -15
30 -10 0 -15 10 -15 30 0 17 -4 30 -10 30 -5 0 -10 11 -10 25 0 16 -6 25 -15
25 -8 0 -15 7 -15 15 0 8 -7 15 -15 15 -8 0 -15 7 -15 15 0 8 -7 15 -15 15 -8
0 -15 7 -15 15 0 8 -7 15 -15 15 -8 0 -15 5 -15 10 0 6 -7 10 -15 10 -8 0 -15
7 -15 15 0 8 -4 15 -10 15 -5 0 -10 7 -10 15 0 9 9 15 25 15 16 0 25 -6 25
-15 0 -10 10 -15 30 -15 20 0 30 -5 30 -15 0 -10 10 -15 30 -15 17 0 30 -4 30
-10 0 -5 11 -10 25 -10 16 0 25 -6 25 -15 0 -10 10 -15 30 -15 20 0 30 -5 30
-15 0 -9 9 -15 25 -15 16 0 25 -6 25 -15 0 -10 10 -15 30 -15 20 0 30 -5 30
-15 0 -9 9 -15 25 -15 l25 0 0 185 c0 117 -4 185 -10 185 -5 0 -10 7 -10 15 0
13 -27 15 -185 15 -158 0 -185 2 -185 15 0 9 -9 15 -25 15 -14 0 -25 5 -25 10
0 6 -13 10 -30 10 -20 0 -30 5 -30 15 0 8 -7 15 -15 15 -10 0 -15 10 -15 30 0
20 -5 30 -15 30 -11 0 -15 11 -15 40 0 29 4 40 15 40 8 0 15 7 15 15 0 11 12
15 45 15 l45 0 0 -55 0 -55 40 0 c29 0 40 4 40 15 0 10 10 15 30 15 25 0 30 4
30 25 0 20 5 25 25 25 16 0 25 -6 25 -15 0 -10 10 -15 30 -15 17 0 30 -4 30
-10 0 -5 14 -10 30 -10 20 0 30 -5 30 -15 0 -9 9 -15 25 -15 16 0 25 -6 25
-15 0 -10 10 -15 30 -15 20 0 30 -5 30 -15 0 -8 5 -15 10 -15 6 0 10 45 10
115 0 70 -4 115 -10 115 -5 0 -10 7 -10 15 0 10 -10 15 -30 15 -16 0 -30 5
-30 10 0 6 -7 10 -15 10 -8 0 -15 7 -15 15 0 8 -4 15 -10 15 -5 0 -10 14 -10
30 0 20 -5 30 -15 30 -9 0 -15 9 -15 25 0 16 -6 25 -15 25 -10 0 -15 10 -15
30 0 20 -5 30 -15 30 -10 0 -15 10 -15 30 0 20 -5 30 -15 30 -9 0 -15 9 -15
25 0 14 -4 25 -10 25 -5 0 -10 14 -10 30 0 20 -5 30 -15 30 -10 0 -15 10 -15
30 0 20 -5 30 -15 30 -9 0 -15 9 -15 25 0 16 -6 25 -15 25 -10 0 -15 10 -15
30 0 20 -5 30 -15 30 -9 0 -15 9 -15 25 0 16 -6 25 -15 25 -10 0 -15 10 -15
30 0 17 -4 30 -10 30 -5 0 -10 18 -10 40 0 22 5 40 10 40 6 0 10 14 10 30 0
20 5 30 15 30 10 0 15 10 15 30 0 20 5 30 15 30 9 0 15 9 15 25 0 16 6 25 15
25 10 0 15 10 15 30 0 20 5 30 15 30 10 0 15 10 15 30 0 20 5 30 15 30 9 0 15
9 15 25 0 14 5 25 10 25 6 0 10 14 10 30 0 20 5 30 15 30 9 0 15 9 15 25 0 16
6 25 15 25 10 0 15 10 15 30 0 20 5 30 15 30 10 0 15 10 15 30 0 20 5 30 15
30 9 0 15 9 15 25 0 14 5 25 10 25 6 0 10 7 10 15 0 10 10 15 30 15 20 0 30 5
30 15 0 9 9 15 25 15 24 0 25 3 25 55 0 52 -1 55 -25 55 -16 0 -25 -6 -25 -15
0 -10 -10 -15 -30 -15 -16 0 -30 -4 -30 -10 0 -5 -11 -10 -25 -10 -16 0 -25
-6 -25 -15 0 -10 -10 -15 -30 -15 -20 0 -30 -5 -30 -15 0 -9 -9 -15 -25 -15
-16 0 -25 -6 -25 -15 0 -10 -10 -15 -30 -15 -20 0 -30 -5 -30 -15 0 -10 -10
-15 -30 -15 -20 0 -30 5 -30 15 0 9 -9 15 -25 15 -16 0 -25 6 -25 15 0 10 -10
15 -30 15 -20 0 -30 5 -30 15 0 10 -10 15 -30 15 -20 0 -30 5 -30 15 0 9 -9
15 -25 15 -14 0 -25 5 -25 10 0 6 -13 10 -30 10 -20 0 -30 5 -30 15 0 9 -9 15
-25 15 -16 0 -25 6 -25 15 0 10 -10 15 -30 15 -20 0 -30 5 -30 15 0 10 -10 15
-30 15 -20 0 -30 5 -30 15 0 9 -9 15 -25 15 -14 0 -25 5 -25 10 0 6 -13 10
-30 10 -20 0 -30 5 -30 15 0 10 -10 15 -30 15 -25 0 -30 -4 -30 -25 0 -14 -4
-25 -10 -25 -5 0 -10 -7 -10 -15 0 -8 -7 -15 -15 -15 -8 0 -15 -7 -15 -15 0
-10 -10 -15 -30 -15 -20 0 -30 -5 -30 -15 0 -9 -9 -15 -25 -15 -16 0 -25 -6
-25 -15 0 -8 -7 -15 -15 -15 -8 0 -15 7 -15 15 0 10 -10 15 -30 15 -20 0 -30
5 -30 15 0 10 -10 15 -30 15 -20 0 -30 5 -30 15 0 9 -9 15 -25 15 -16 0 -25 6
-25 15 0 8 -7 15 -15 15 -8 0 -15 5 -15 10 0 6 -7 10 -15 10 -10 0 -15 10 -15
30 0 20 -5 30 -15 30 -10 0 -15 10 -15 30 0 17 -4 30 -10 30 -5 0 -10 11 -10
25 0 16 -6 25 -15 25 -8 0 -15 7 -15 15 0 8 7 15 15 15 8 0 15 7 15 15 0 13
-37 15 -270 15 -233 0 -270 -2 -270 -15 0 -9 -9 -15 -25 -15 -16 0 -25 -6 -25
-15 0 -11 -12 -15 -45 -15 -43 0 -45 1 -45 30 l0 30 -110 0 -110 0 0 -30z
m1630 -2095 c0 -8 7 -15 15 -15 9 0 15 -9 15 -25 0 -14 5 -25 10 -25 6 0 10
-7 10 -15 0 -12 -14 -15 -70 -15 -56 0 -70 3 -70 15 0 8 7 15 15 15 9 0 15 9
15 25 0 16 6 25 15 25 8 0 15 7 15 15 0 8 7 15 15 15 8 0 15 -7 15 -15z"/>
<path d="M2030 3385 c0 -8 -7 -15 -15 -15 -8 0 -15 -7 -15 -15 0 -8 7 -15 15
-15 9 0 15 -9 15 -25 0 -16 6 -25 15 -25 10 0 15 -10 15 -30 0 -16 5 -30 10
-30 6 0 10 -7 10 -15 0 -10 10 -15 30 -15 20 0 30 -5 30 -15 0 -10 10 -15 30
-15 17 0 30 -4 30 -10 0 -5 7 -10 15 -10 8 0 15 5 15 10 0 6 11 10 25 10 16 0
25 6 25 15 0 8 7 15 15 15 10 0 15 10 15 30 0 20 5 30 15 30 8 0 15 7 15 15 0
8 -7 15 -15 15 -8 0 -15 7 -15 15 0 9 -10 15 -26 15 -26 0 -54 20 -54 39 0 6
5 11 10 11 6 0 10 7 10 15 0 12 -19 15 -110 15 -91 0 -110 -3 -110 -15z"/>
<path d="M2480 3370 c0 -20 5 -30 15 -30 9 0 15 -9 15 -25 0 -14 5 -25 10 -25
6 0 10 -7 10 -15 0 -8 7 -15 15 -15 8 0 15 -7 15 -15 0 -10 10 -15 30 -15 20
0 30 -5 30 -15 0 -10 10 -15 30 -15 20 0 30 -5 30 -15 0 -9 9 -15 25 -15 14 0
25 -4 25 -10 0 -5 14 -10 30 -10 20 0 30 -5 30 -15 0 -9 9 -15 25 -15 16 0 25
-6 25 -15 0 -10 10 -15 30 -15 20 0 30 -5 30 -15 0 -10 10 -15 30 -15 20 0 30
-5 30 -15 0 -9 9 -15 25 -15 14 0 25 -4 25 -10 0 -5 14 -10 30 -10 17 0 30 5
30 10 0 6 14 10 30 10 20 0 30 5 30 15 0 9 9 15 25 15 16 0 25 6 25 15 0 10
10 15 30 15 20 0 30 5 30 15 0 9 9 15 25 15 16 0 25 6 25 15 0 10 10 15 30 15
17 0 30 5 30 10 0 6 11 10 25 10 l25 0 0 115 0 115 -25 0 c-16 0 -25 -6 -25
-15 0 -10 -10 -15 -30 -15 -20 0 -30 -5 -30 -15 0 -9 -9 -15 -25 -15 -14 0
-25 -4 -25 -10 0 -5 -13 -10 -30 -10 -20 0 -30 -5 -30 -15 0 -9 -9 -15 -25
-15 -16 0 -25 -6 -25 -15 0 -10 -10 -15 -30 -15 -20 0 -30 -5 -30 -15 0 -10
-10 -15 -30 -15 -20 0 -30 5 -30 15 0 9 -9 15 -25 15 -16 0 -25 6 -25 15 0 10
-10 15 -30 15 -20 0 -30 5 -30 15 0 10 -10 15 -30 15 -16 0 -30 5 -30 10 0 6
-11 10 -25 10 -16 0 -25 6 -25 15 0 10 -10 15 -30 15 -20 0 -30 5 -30 15 0 13
-21 15 -125 15 l-125 0 0 -30z"/>
<path d="M3040 3385 c0 -11 12 -15 45 -15 33 0 45 4 45 15 0 11 -12 15 -45 15
-33 0 -45 -4 -45 -15z"/>
<path d="M120 3275 c0 -10 -10 -15 -30 -15 -27 0 -30 -3 -30 -30 0 -20 -5 -30
-15 -30 -8 0 -15 -7 -15 -15 0 -8 7 -15 15 -15 8 0 15 -4 15 -10 0 -5 7 -10
15 -10 10 0 15 -10 15 -30 0 -20 -5 -30 -15 -30 -8 0 -15 -7 -15 -15 0 -8 -7
-15 -15 -15 -8 0 -15 7 -15 15 0 8 -7 15 -15 15 -12 0 -15 -19 -15 -110 0 -91
3 -110 15 -110 8 0 15 -7 15 -15 0 -8 7 -15 15 -15 8 0 15 7 15 15 0 10 10 15
30 15 17 0 30 5 30 10 0 6 11 10 25 10 16 0 25 6 25 15 0 10 10 15 30 15 27 0
30 3 30 30 0 20 5 30 15 30 9 0 15 9 15 25 0 14 5 25 10 25 6 0 10 14 10 30 0
20 5 30 15 30 8 0 15 7 15 15 0 8 -7 15 -15 15 -9 0 -15 9 -15 25 0 14 -4 25
-10 25 -5 0 -10 14 -10 30 0 27 -3 30 -30 30 -20 0 -30 5 -30 15 0 10 -10 15
-30 15 -20 0 -30 5 -30 15 0 8 -4 15 -10 15 -5 0 -10 -7 -10 -15z"/>
<path d="M3350 2810 c0 -20 -5 -30 -15 -30 -10 0 -15 -10 -15 -30 0 -20 -5
-30 -15 -30 -9 0 -15 -9 -15 -25 0 -14 -4 -25 -10 -25 -5 0 -10 -13 -10 -30 0
-20 -5 -30 -15 -30 -9 0 -15 -9 -15 -25 0 -16 -6 -25 -15 -25 -10 0 -15 -10
-15 -30 0 -20 -5 -30 -15 -30 -10 0 -15 -10 -15 -30 0 -20 -5 -30 -15 -30 -9
0 -15 -9 -15 -25 0 -14 -4 -25 -10 -25 -5 0 -10 -13 -10 -30 0 -20 -5 -30 -15
-30 -10 0 -15 -10 -15 -30 0 -20 -5 -30 -15 -30 -11 0 -15 -11 -15 -40 0 -29
4 -40 15 -40 10 0 15 -10 15 -30 0 -20 5 -30 15 -30 9 0 15 -9 15 -25 0 -14 5
-25 10 -25 6 0 10 -13 10 -30 0 -20 5 -30 15 -30 9 0 15 -9 15 -25 0 -16 6
-25 15 -25 10 0 15 -10 15 -30 0 -20 5 -30 15 -30 10 0 15 -10 15 -30 0 -20 5
-30 15 -30 9 0 15 -9 15 -25 0 -14 5 -25 10 -25 6 0 10 -13 10 -30 0 -20 5
-30 15 -30 10 0 15 -10 15 -30 0 -20 5 -30 15 -30 9 0 15 -9 15 -25 0 -16 6
-25 15 -25 8 0 15 -7 15 -15 0 -8 5 -15 10 -15 6 0 10 77 10 210 0 133 -4 210
-10 210 -5 0 -10 14 -10 30 0 20 -5 30 -15 30 -9 0 -15 9 -15 25 0 16 -6 25
-15 25 -10 0 -15 10 -15 30 0 20 -5 30 -15 30 -11 0 -15 11 -15 40 0 29 4 40
15 40 10 0 15 10 15 30 0 20 5 30 15 30 10 0 15 10 15 30 0 20 5 30 15 30 9 0
15 9 15 25 0 14 5 25 10 25 6 0 10 73 10 200 l0 200 -25 0 c-21 0 -25 -5 -25
-30z"/>
<path d="M2450 2545 c0 -10 10 -15 30 -15 20 0 30 -5 30 -15 0 -8 5 -15 10
-15 6 0 10 -7 10 -15 0 -8 7 -15 15 -15 9 0 15 -9 15 -25 0 -16 6 -25 15 -25
10 0 15 -10 15 -30 0 -20 5 -30 15 -30 8 0 15 -7 15 -15 0 -8 7 -15 15 -15 12
0 15 18 15 100 l0 100 -60 0 c-47 0 -60 3 -60 15 0 11 -11 15 -40 15 -29 0
-40 -4 -40 -15z"/>
<path d="M790 2430 c0 -5 -13 -10 -30 -10 -20 0 -30 -5 -30 -15 0 -9 -9 -15
-25 -15 -16 0 -25 -6 -25 -15 0 -10 -10 -15 -30 -15 -20 0 -30 -5 -30 -15 0
-9 -9 -15 -25 -15 -16 0 -25 -6 -25 -15 0 -10 -10 -15 -30 -15 -20 0 -30 -5
-30 -15 0 -10 -10 -15 -30 -15 -16 0 -30 -4 -30 -10 0 -5 -11 -10 -25 -10 -16
0 -25 -6 -25 -15 0 -10 -10 -15 -30 -15 -20 0 -30 -5 -30 -15 0 -10 -10 -15
-30 -15 -20 0 -30 -5 -30 -15 0 -9 -9 -15 -25 -15 -16 0 -25 -6 -25 -15 0 -10
-10 -15 -30 -15 -16 0 -30 -4 -30 -10 0 -5 -11 -10 -25 -10 -16 0 -25 -6 -25
-15 0 -10 -10 -15 -30 -15 -20 0 -30 -5 -30 -15 0 -10 -10 -15 -30 -15 l-30 0
0 -255 c0 -220 2 -255 15 -255 8 0 15 -4 15 -10 0 -5 14 -10 30 -10 20 0 30
-5 30 -15 0 -9 9 -15 25 -15 16 0 25 -6 25 -15 0 -10 10 -15 30 -15 20 0 30
-5 30 -15 0 -10 10 -15 30 -15 20 0 30 -5 30 -15 0 -9 9 -15 25 -15 16 0 25
-6 25 -15 0 -10 10 -15 30 -15 17 0 30 -4 30 -10 0 -5 14 -10 30 -10 20 0 30
-5 30 -15 0 -9 9 -15 25 -15 16 0 25 -6 25 -15 0 -10 10 -15 30 -15 20 0 30
-5 30 -15 0 -11 11 -15 40 -15 29 0 40 4 40 15 0 8 -7 15 -15 15 -10 0 -15 10
-15 30 0 17 -4 30 -10 30 -5 0 -10 11 -10 25 0 16 -6 25 -15 25 -10 0 -15 10
-15 30 0 20 -5 30 -15 30 -10 0 -15 10 -15 30 0 20 -5 30 -15 30 -9 0 -15 9
-15 25 0 16 -6 25 -15 25 -11 0 -15 12 -15 45 0 33 4 45 15 45 9 0 15 9 15 25
0 16 6 25 15 25 10 0 15 10 15 30 0 20 5 30 15 30 9 0 15 9 15 25 0 16 6 25
15 25 10 0 15 10 15 30 0 17 5 30 10 30 6 0 10 14 10 30 0 20 5 30 15 30 9 0
15 9 15 25 0 16 6 25 15 25 10 0 15 10 15 30 0 20 5 30 15 30 10 0 15 10 15
30 0 20 5 30 15 30 9 0 15 9 15 25 0 14 5 25 10 25 6 0 10 14 10 30 0 20 5 30
15 30 9 0 15 9 15 25 0 16 6 25 15 25 10 0 15 10 15 30 0 20 5 30 15 30 10 0
15 10 15 30 0 20 5 30 15 30 9 0 15 9 15 25 0 21 -5 25 -30 25 -16 0 -30 -4
-30 -10z m-480 -490 c0 -20 5 -30 15 -30 8 0 15 -7 15 -15 0 -10 10 -15 30
-15 20 0 30 -5 30 -15 0 -8 7 -15 15 -15 8 0 15 -7 15 -15 0 -8 -7 -15 -15
-15 -8 0 -15 -4 -15 -10 0 -5 -7 -10 -15 -10 -8 0 -15 -7 -15 -15 0 -8 -7 -15
-15 -15 -10 0 -15 -10 -15 -30 0 -27 -3 -30 -30 -30 -20 0 -30 5 -30 15 0 11
-11 15 -40 15 -29 0 -40 -4 -40 -15 0 -12 -13 -15 -55 -15 -42 0 -55 3 -55 15
0 8 -7 15 -15 15 -10 0 -15 10 -15 30 0 20 5 30 15 30 8 0 15 5 15 10 0 6 7
10 15 10 8 0 15 7 15 15 0 8 5 15 10 15 6 0 10 7 10 15 0 8 7 15 15 15 8 0 15
7 15 15 0 10 10 15 30 15 20 0 30 5 30 15 0 9 9 15 25 15 16 0 25 6 25 15 0 8
7 15 15 15 10 0 15 -10 15 -30z"/>
<path d="M0 1260 l0 -170 30 0 c20 0 30 5 30 15 0 10 10 15 30 15 20 0 30 5
30 15 0 8 5 15 10 15 6 0 10 -7 10 -15 0 -10 10 -15 30 -15 20 0 30 -5 30 -15
0 -10 10 -15 30 -15 17 0 30 -4 30 -10 0 -5 11 -10 25 -10 16 0 25 -6 25 -15
0 -10 10 -15 30 -15 20 0 30 -5 30 -15 0 -10 10 -15 30 -15 20 0 30 -5 30 -15
0 -8 5 -15 10 -15 6 0 10 -13 10 -30 0 -20 5 -30 15 -30 9 0 15 -9 15 -25 0
-16 6 -25 15 -25 10 0 15 -10 15 -30 0 -20 5 -30 15 -30 9 0 15 -9 15 -25 0
-16 6 -25 15 -25 10 0 15 -10 15 -30 0 -16 5 -30 10 -30 6 0 10 -13 10 -30 0
-20 5 -30 15 -30 9 0 15 -9 15 -25 0 -16 6 -25 15 -25 10 0 15 -10 15 -30 0
-20 5 -30 15 -30 10 0 15 -10 15 -30 0 -20 5 -30 15 -30 9 0 15 -9 15 -25 0
-14 5 -25 10 -25 6 0 10 -7 10 -15 0 -8 -4 -15 -10 -15 -5 0 -10 -13 -10 -30
0 -20 -5 -30 -15 -30 -9 0 -15 -9 -15 -25 0 -16 -6 -25 -15 -25 -10 0 -15 -10
-15 -30 0 -20 -5 -30 -15 -30 -9 0 -15 -9 -15 -25 0 -16 -6 -25 -15 -25 -10 0
-15 -10 -15 -30 0 -16 -4 -30 -10 -30 -5 0 -10 -13 -10 -30 0 -20 -5 -30 -15
-30 -9 0 -15 -9 -15 -25 l0 -25 110 0 110 0 0 25 c0 16 6 25 15 25 10 0 15 10
15 30 0 20 5 30 15 30 10 0 15 10 15 30 0 20 5 30 15 30 9 0 15 9 15 25 0 16
6 25 15 25 10 0 15 10 15 30 0 17 5 30 10 30 6 0 10 11 10 25 0 16 6 25 15 25
10 0 15 10 15 30 0 20 5 30 15 30 8 0 15 7 15 15 0 8 -7 15 -15 15 -9 0 -15 9
-15 25 0 16 -6 25 -15 25 -10 0 -15 10 -15 30 0 17 -4 30 -10 30 -5 0 -10 14
-10 30 0 20 -5 30 -15 30 -9 0 -15 9 -15 25 0 16 -6 25 -15 25 -10 0 -15 10
-15 30 0 20 -5 30 -15 30 -10 0 -15 10 -15 30 0 20 -5 30 -15 30 -9 0 -15 9
-15 25 0 16 -6 25 -15 25 -10 0 -15 10 -15 30 0 17 -4 30 -10 30 -5 0 -10 11
-10 25 0 16 -6 25 -15 25 -10 0 -15 10 -15 30 0 20 -5 30 -15 30 -10 0 -15 10
-15 30 0 20 -5 30 -15 30 -9 0 -15 9 -15 25 0 16 -6 25 -15 25 -10 0 -15 10
-15 30 0 25 -4 30 -25 30 -16 0 -25 6 -25 15 0 10 -10 15 -30 15 -20 0 -30 5
-30 15 0 9 -9 15 -25 15 -14 0 -25 5 -25 10 0 6 -13 10 -30 10 -20 0 -30 5
-30 15 0 10 -10 15 -30 15 -20 0 -30 5 -30 15 0 9 -9 15 -25 15 -16 0 -25 6
-25 15 0 10 -10 15 -30 15 -20 0 -30 5 -30 15 0 10 -10 15 -30 15 -16 0 -30 5
-30 10 0 6 -11 10 -25 10 -16 0 -25 6 -25 15 0 10 -10 15 -30 15 -20 0 -30 5
-30 15 0 8 -7 15 -15 15 -13 0 -15 -26 -15 -170z"/>
<path d="M120 1025 c0 -10 -10 -15 -30 -15 -20 0 -30 -5 -30 -15 0 -10 -10
-15 -30 -15 l-30 0 0 -265 c0 -229 2 -265 15 -265 8 0 15 -7 15 -15 0 -8 7
-15 15 -15 8 0 15 -7 15 -15 0 -8 -7 -15 -15 -15 -10 0 -15 -10 -15 -30 0 -20
-5 -30 -15 -30 -13 0 -15 -21 -15 -125 0 -104 2 -125 15 -125 8 0 15 7 15 15
0 10 10 15 30 15 20 0 30 5 30 15 0 9 9 15 25 15 16 0 25 6 25 15 0 8 7 15 15
15 9 0 15 9 15 25 0 16 6 25 15 25 10 0 15 10 15 30 0 20 5 30 15 30 9 0 15 9
15 25 0 16 6 25 15 25 10 0 15 10 15 30 0 17 5 30 10 30 6 0 10 7 10 15 0 8
-4 15 -10 15 -5 0 -10 11 -10 25 0 16 -6 25 -15 25 -10 0 -15 10 -15 30 0 20
-5 30 -15 30 -10 0 -15 10 -15 30 0 20 -5 30 -15 30 -8 0 -15 7 -15 15 0 9 -9
15 -25 15 -14 0 -25 5 -25 10 0 6 -7 10 -15 10 -10 0 -15 10 -15 30 0 20 5 30
15 30 8 0 15 7 15 15 0 8 -7 15 -15 15 -9 0 -15 9 -15 25 0 16 6 25 15 25 8 0
15 7 15 15 0 8 5 15 10 15 6 0 10 -7 10 -15 0 -10 10 -15 30 -15 17 0 30 -4
30 -10 0 -5 7 -10 15 -10 10 0 15 -10 15 -30 0 -20 5 -30 15 -30 10 0 15 -10
15 -30 0 -16 5 -30 10 -30 6 0 10 -11 10 -25 0 -16 6 -25 15 -25 10 0 15 -10
15 -30 0 -20 5 -30 15 -30 10 0 15 -10 15 -30 0 -20 5 -30 15 -30 9 0 15 -9
15 -25 0 -16 6 -25 15 -25 8 0 15 -7 15 -15 0 -8 -7 -15 -15 -15 -10 0 -15
-10 -15 -30 0 -20 -5 -30 -15 -30 -9 0 -15 -9 -15 -25 0 -16 -6 -25 -15 -25
-10 0 -15 -10 -15 -30 0 -20 -5 -30 -15 -30 -9 0 -15 -9 -15 -25 0 -14 -4 -25
-10 -25 -5 0 -10 -13 -10 -30 0 -20 -5 -30 -15 -30 -8 0 -15 -7 -15 -15 0 -8
-7 -15 -15 -15 -8 0 -15 -7 -15 -15 0 -10 -10 -15 -30 -15 -20 0 -30 -5 -30
-15 0 -9 -9 -15 -25 -15 -14 0 -25 -4 -25 -10 0 -6 63 -10 170 -10 l170 0 0
25 c0 14 5 25 10 25 6 0 10 14 10 30 0 20 5 30 15 30 10 0 15 10 15 30 0 20 5
30 15 30 9 0 15 9 15 25 0 16 6 25 15 25 10 0 15 10 15 30 0 20 5 30 15 30 9
0 15 9 15 25 0 14 5 25 10 25 6 0 10 14 10 30 0 20 5 30 15 30 8 0 15 7 15 15
0 8 -7 15 -15 15 -9 0 -15 9 -15 25 0 14 -4 25 -10 25 -5 0 -10 14 -10 30 0
20 -5 30 -15 30 -10 0 -15 10 -15 30 0 20 -5 30 -15 30 -9 0 -15 9 -15 25 0
16 -6 25 -15 25 -10 0 -15 10 -15 30 0 20 -5 30 -15 30 -10 0 -15 10 -15 30 0
17 -4 30 -10 30 -5 0 -10 11 -10 25 0 16 -6 25 -15 25 -10 0 -15 10 -15 30 0
20 -5 30 -15 30 -9 0 -15 9 -15 25 0 21 -5 25 -30 25 -20 0 -30 5 -30 15 0 9
-9 15 -25 15 -16 0 -25 6 -25 15 0 10 -10 15 -30 15 -20 0 -30 5 -30 15 0 10
-10 15 -30 15 -20 0 -30 5 -30 15 0 8 -4 15 -10 15 -5 0 -10 -7 -10 -15z"/>
<path d="M3290 670 c0 -20 5 -30 15 -30 9 0 15 -9 15 -25 0 -16 6 -25 15 -25
12 0 15 13 15 55 0 54 0 55 -30 55 -27 0 -30 -3 -30 -30z"/>
<path d="M960 630 c0 -29 4 -40 15 -40 10 0 15 -10 15 -30 0 -20 5 -30 15 -30
8 0 15 -7 15 -15 0 -8 5 -15 10 -15 6 0 10 -7 10 -15 0 -8 7 -15 15 -15 8 0
15 -4 15 -10 0 -5 7 -10 15 -10 8 0 15 -7 15 -15 0 -8 7 -15 15 -15 10 0 15
-10 15 -30 0 -20 -5 -30 -15 -30 -8 0 -15 -7 -15 -15 0 -8 -7 -15 -15 -15 -9
0 -15 -9 -15 -25 0 -16 -6 -25 -15 -25 -12 0 -15 -13 -15 -55 0 -52 -1 -55
-25 -55 -16 0 -25 -6 -25 -15 0 -10 -10 -15 -30 -15 -20 0 -30 -5 -30 -15 0
-8 -7 -15 -15 -15 -10 0 -15 -10 -15 -30 0 -16 -4 -30 -10 -30 -5 0 -10 -11
-10 -25 l0 -25 280 0 c180 0 280 4 280 10 0 6 11 10 25 10 16 0 25 6 25 15 0
10 10 15 30 15 20 0 30 5 30 15 0 10 10 15 30 15 20 0 30 5 30 15 0 9 9 15 25
15 16 0 25 6 25 15 0 10 10 15 30 15 20 0 30 5 30 15 0 10 10 15 30 15 17 0
30 5 30 10 0 6 11 10 25 10 21 0 25 5 25 30 0 25 -4 30 -25 30 -16 0 -25 6
-25 15 0 10 -10 15 -30 15 -20 0 -30 5 -30 15 0 10 -10 15 -30 15 -16 0 -30 5
-30 10 0 6 -11 10 -25 10 -16 0 -25 6 -25 15 0 10 -10 15 -30 15 -20 0 -30 5
-30 15 0 10 -10 15 -30 15 -20 0 -30 5 -30 15 0 9 -9 15 -25 15 -16 0 -25 6
-25 15 0 10 -10 15 -30 15 -16 0 -30 5 -30 10 0 6 -11 10 -25 10 -16 0 -25 6
-25 15 0 10 -10 15 -30 15 -20 0 -30 5 -30 15 0 10 -10 15 -30 15 -20 0 -30 5
-30 15 0 9 -9 15 -25 15 -16 0 -25 6 -25 15 0 10 -10 15 -30 15 -20 0 -30 5
-30 15 0 10 -10 15 -30 15 -16 0 -30 5 -30 10 0 6 -11 10 -25 10 -16 0 -25 6
-25 15 0 8 -7 15 -15 15 -11 0 -15 -11 -15 -40z"/>
<path d="M1830 95 c0 -9 -9 -15 -25 -15 -16 0 -25 -6 -25 -15 0 -10 -10 -15
-30 -15 -20 0 -30 -5 -30 -15 0 -10 -10 -15 -30 -15 -16 0 -30 -4 -30 -10 0
-6 77 -10 210 -10 133 0 210 4 210 10 0 6 -11 10 -25 10 -16 0 -25 6 -25 15 0
10 -10 15 -30 15 -20 0 -30 5 -30 15 0 9 -9 15 -25 15 -16 0 -25 6 -25 15 0
11 -12 15 -45 15 -33 0 -45 -4 -45 -15z"/>
</g>
</svg>
